<?xml version="1.0" standalone="no"?>
<!DOCTYPE svg PUBLIC "-//W3C//DTD SVG 20010904//EN"
 "http://www.w3.org/TR/2001/REC-SVG-20010904/DTD/svg10.dtd">
<svg version="1.0" xmlns="http://www.w3.org/2000/svg"
 width="700.000000pt" height="700.000000pt" viewBox="0 0 700.000000 700.000000"
 preserveAspectRatio="xMidYMid meet">
<metadata>
Created by potrace 1.11, written by Peter Selinger 2001-2013
</metadata>
<g transform="translate(0.000000,700.000000) scale(0.100000,-0.100000)"
fill="#000000" stroke="none">
<path d="M5060 6302 c-52 -25 -60 -51 -60 -188 l0 -121 -701 -939 c-386 -516
-703 -941 -705 -942 -2 -4 -101 128 -306 406 l-88 119 0 122 c0 67 -5 131 -10
142 -13 22 -61 49 -90 49 -33 0 -75 -26 -88 -55 -7 -15 -12 -74 -12 -143 l0
-117 -278 -369 c-309 -413 -320 -426 -748 -1004 -250 -336 -309 -411 -319
-400 -7 7 -175 231 -374 498 -198 267 -379 506 -401 532 -33 38 -53 51 -96 64
-34 9 -67 13 -87 9 -85 -19 -96 -30 -393 -427 l-286 -381 6 -66 c11 -108 34
-237 73 -403 l37 -158 643 0 c354 0 643 -2 643 -5 0 -2 -130 -179 -289 -392
l-289 -388 91 -6 c105 -6 120 -11 142 -46 32 -49 20 -114 -28 -144 -32 -19
-26 -19 761 -19 l792 0 0 235 c0 253 4 276 51 301 49 25 96 14 131 -30 15 -18
18 -47 18 -225 l0 -205 118 117 c111 109 121 117 158 117 61 -1 104 -46 104
-111 0 -26 -14 -46 -82 -115 l-82 -84 1053 0 1053 0 -31 29 c-53 49 -39 137
26 170 12 6 70 11 132 11 l110 0 -429 575 c-237 317 -430 578 -430 580 0 3
309 5 687 5 l687 0 -56 57 c-65 66 -79 95 -66 140 12 44 52 73 101 73 37 0 47
-7 138 -97 l99 -96 144 150 c151 156 196 189 246 178 34 -8 77 -48 82 -78 8
-50 -14 -83 -134 -204 l-123 -123 321 0 321 0 7 48 c19 133 35 325 41 474 l7
167 -574 768 c-316 422 -720 963 -898 1202 l-324 435 -1 125 c0 140 -7 160
-61 186 -40 19 -42 19 -84 -3z"/>
</g>
</svg>
