<svg xmlns="http://www.w3.org/2000/svg" height="512" width="512"><path d="M129.88 252.333c-79.368 0-124.516-91.463-75.604-153.968C101.133 38.486 174.072 0 256 0c139.13 0 252.336 110.988 255.913 249.255.044 1.688-1.327 3.078-3.016 3.078z" fill="#40c1fa"/><path d="M480.754 256c0 124.128-100.626 224.754-224.754 224.754S31.246 380.128 31.246 256 131.872 31.246 256 31.246 480.754 131.872 480.754 256z" fill="#72d1fb"/><path d="M188.277 141.167h-70.135c-8.284 0-15-6.716-15-15s6.716-15 15-15h70.135c8.284 0 15 6.716 15 15s-6.715 15-15 15zm15-81c0-8.284-6.716-15-15-15H168.2c-8.284 0-15 6.716-15 15s6.716 15 15 15h20.067c8.285 0 15-6.716 15-15zM463.35 135c0-8.284-6.716-15-15-15h-20.067c-8.284 0-15 6.716-15 15s6.716 15 15 15h20.067c8.284 0 15-6.716 15-15z" fill="#b4e7fd"/><path d="M341.402 76.03a20.95 20.95 0 0 0 16.761 23.903c4.914.936 6.77 6.994 3.225 10.523-8.033 7.995-8.25 20.93-.5 29.2 3.425 3.646 1.367 9.638-3.576 10.41a20.95 20.95 0 0 0-17.554 23.327c.628 4.963-4.56 8.6-9.012 6.32-10.086-5.17-22.455-1.38-27.913 8.554-2.41 4.384-8.744 4.278-11.005-.185a20.95 20.95 0 0 0-27.61-9.486c-4.526 2.13-9.59-1.68-8.795-6.618a20.95 20.95 0 0 0-16.761-23.903c-4.914-.936-6.77-6.994-3.225-10.523 8.033-7.995 8.25-20.93.5-29.2-3.425-3.646-1.367-9.638 3.576-10.41a20.95 20.95 0 0 0 17.554-23.327c-.628-4.963 4.56-8.6 9.012-6.32 10.086 5.17 22.455 1.38 27.913-8.554 2.41-4.384 8.744-4.278 11.005.185a20.95 20.95 0 0 0 27.61 9.486c4.526-2.13 9.59 1.68 8.795 6.618z" fill="#ffde91"/><path d="M335.37 124c0 20.408-16.544 36.952-36.952 36.952S261.466 144.408 261.466 124 278 87.048 298.418 87.048 335.37 103.592 335.37 124z" fill="#ffc14f"/><path d="M320.6 124c0 12.245-9.926 22.17-22.17 22.17s-22.17-9.926-22.17-22.17 9.926-22.17 22.17-22.17 22.17 9.926 22.17 22.17z" fill="#ffa90b"/><path d="M183.388 190c23.963 0 43.388 19.426 43.388 43.388s-19.426 43.388-43.388 43.388S140 257.35 140 233.388 159.426 190 183.388 190z" fill="#489160"/><path d="M336.777 196.612c0 23.962-19.426 43.388-43.388 43.388-17.992 0-33.425-10.95-40-26.55-6.575 15.6-22.008 26.55-40 26.55-23.963 0-43.39-19.426-43.39-43.388 0-23.908 19.337-43.3 43.224-43.387.09-18.365 15.003-33.225 33.388-33.225 18.44 0 33.388 14.948 33.388 33.388 0 .658-.02 1.31-.057 1.96 4.233-1.378 8.752-2.124 13.446-2.124 23.962 0 43.388 19.426 43.388 43.39z" fill="#6dc54a"/><path d="M180 183.388c0 29.486-23.903 53.39-53.388 53.39s-53.388-23.903-53.388-53.39a53.63 53.63 0 0 1 1.134-10.998C59.934 165.34 50 150.524 50 133.388 50 109.426 69.426 90 93.388 90c23.146 0 42.057 18.124 43.32 40.954 24.658 4.72 43.292 26.4 43.292 52.434z" fill="#489160"/><path d="M483.258 270c15.8 0 27.69 14.263 25.005 29.832C487.47 420.334 382.44 512 256 512 138.98 512 40.3 433.486 9.763 326.263 1.725 298.04 23.12 270 52.465 270z" fill="#82cd64"/><g fill="#6dc54a"><path d="M303.938 507.52C288.41 510.46 272.384 512 256 512 138.98 512 40.3 433.485 9.763 326.263 1.725 298.04 23.12 270 52.465 270h95.874c-29.345 0-50.74 28.04-42.702 56.263 26.26 92.2 102.92 163.188 198.3 181.256z"/><path d="M210 438.5a7.5 7.5 0 0 1-7.5 7.5h-45a7.5 7.5 0 1 1 0-15h45a7.5 7.5 0 0 1 7.5 7.5zm99.943 25a7.5 7.5 0 0 1-7.5 7.5h-45a7.5 7.5 0 1 1 0-15h45a7.5 7.5 0 0 1 7.5 7.5zM408.48 446a7.5 7.5 0 0 0-7.5-7.5h-19.925a7.5 7.5 0 1 0 0 15h19.925a7.5 7.5 0 0 0 7.5-7.5zm-61.585-22.5a7.5 7.5 0 0 1-7.5 7.5h-45a7.5 7.5 0 1 1 0-15h45a7.5 7.5 0 0 1 7.5 7.5zm117.24-69.33a7.5 7.5 0 0 0-7.5-7.5h-19.925a7.5 7.5 0 1 0 0 15h19.925a7.5 7.5 0 0 0 7.5-7.5zm-34.925-26.922a7.5 7.5 0 0 1-7.5 7.5h-45a7.5 7.5 0 1 1 0-15h45a7.5 7.5 0 0 1 7.5 7.5z"/></g><path d="M230 326.777h-91S2.8 297.036 1.253 281.49C.424 273.105 0 264.602 0 256c0-61.003 21.337-117.022 56.955-161z" fill="#ffc14f"/><path d="M26.325 296.213c-14.56-5.364-24.66-10.555-25.072-14.725C.424 273.104 0 264.602 0 256c0-61.003 21.337-117.022 56.955-161l20.993 28.118c-31.9 50.162-50.7 109.463-51.623 173.096z" fill="#e4ab45"/><path d="M65.243 227.986L139 326.777H9.9a254.91 254.91 0 0 1-8.656-45.282l39.95-53.5c6-8.034 18.04-8.034 24.04.001z" fill="#7b5341"/><path d="M53.794 251.295c-16.046 21.492-21.37 49.25-14.017 75.044l.125.438H9.9a254.91 254.91 0 0 1-8.656-45.282l39.95-53.5c6-8.035 18.04-8.035 24.04 0l2.977 3.987z" fill="#634539"/><path d="M373.223 63.223l138.682 185.752L512 256c0 15.003-1.29 29.705-3.767 44H459l-12.91-3.58A241.12 241.12 0 0 0 305.5 300H196.447z" fill="#2476ed"/><path d="M373.223 90a7.5 7.5 0 0 1-7.5-7.5v-25a7.5 7.5 0 1 1 15 0v25a7.5 7.5 0 0 1-7.5 7.5z" fill="#0956c6"/><path d="M287.447 300l73.757-98.79c6-8.035 18.04-8.035 24.04 0L459 300z" fill="#634539"/><path d="M365.505 239.84l24.3-32.535L459 300h-63.334c-30.98 0-48.695-35.335-30.16-60.16z" fill="#7b5341"/><path d="M50 400l176.777-236.777L392.914 385.75c4.4 5.88.194 14.25-7.145 14.25h-73.216l-7.218-3.913a164.84 164.84 0 0 0-157.117 0L141 400z" fill="#f44545"/><path d="M246.527 189.677L89.5 400H67.154c-7.08 0-11.127-8.074-6.892-13.746l166.514-223.03z" fill="#d63030"/><path d="M234.277 157.5v25a7.5 7.5 0 1 1-15 0v-25a7.5 7.5 0 1 1 15 0z" fill="#af2727"/><path d="M141 400l73.757-98.79c6-8.035 18.04-8.035 24.04 0L312.553 400z" fill="#634539"/><path d="M222 337.97l22.12-29.63L312.553 400H253.1c-31.942 0-50.21-36.433-31.1-62.03z" fill="#7b5341"/><path d="M430 392.5a7.5 7.5 0 0 1-7.5 7.5h-45a7.5 7.5 0 1 1 0-15h45a7.5 7.5 0 0 1 7.5 7.5zM72.5 385H34.83a256.14 256.14 0 0 0 9.48 15h28.2a7.5 7.5 0 1 0 0-15z" fill="#ffc14f"/><path d="M230.48 390.125l-17.678 17.678a7.5 7.5 0 0 1-10.303.287 7.47 7.47 0 0 1-5 1.91 7.5 7.5 0 0 1-7.5-7.5v-35a7.5 7.5 0 1 1 15 0v26.894l14.874-14.875a7.5 7.5 0 0 1 10.607 10.606zm247.323-107.07L455.858 305l1.945 1.945a7.5 7.5 0 0 1-10.607 10.606l-24.75-24.75a7.5 7.5 0 0 1 10.607-10.606l12.197 12.197 21.945-21.946a7.5 7.5 0 1 1 10.607 10.608z" fill="#82cd64"/></svg>